/* XPM */
static char * newicon_xpm[] = {
"32 32 40 1",
" 	c None",
".	c #000000",
"+	c #808080",
"@	c #C0C0C0",
"#	c #0000BF",
"$	c #FFFFFF",
"%	c #FFE6D5",
"&	c #FFC8A4",
"*	c #E4772E",
"=	c #FF9A57",
"-	c #FF6600",
";	c #7D3302",
">	c #FF8F44",
",	c #FFAB73",
"'	c #FFF6F0",
")	c #FFE3D1",
"!	c #FF7215",
"~	c #FA9653",
"{	c #F9B282",
"]	c #E0A782",
"^	c #F7E0D0",
"/	c #F8D7C1",
"(	c #FFEDE1",
"_	c #D07233",
":	c #CE5504",
"<	c #F46405",
"[	c #FF8534",
"}	c #F1D4C0",
"|	c #D55804",
"1	c #E55E04",
"2	c #EDC9B1",
"3	c #F7E9E0",
"4	c #FFD1B2",
"5	c #E58443",
"6	c #F06C14",
"7	c #9F4103",
"8	c #E15D04",
"9	c #C25004",
"0	c #3F1A01",
"a	c #210E01",
"................................",
"................................",
"+++++++++++++++++++++++++++++++.",
"+@@@@@@@@@@@@@@@@@@@@@@@@@@@@@+.",
"+@############################+.",
"+@###################@@.@@.@@.+.",
"+@###################@@.@@.@@.+.",
"+@###################.........+.",
"+@@@@@@@@@@@@@@@@@@@@@@@@@@@@@+.",
"+@+++++++++++++++++++++++++++@+.",
"+@+$$$$$$$$$$$$$$$$$$$$$$$$$$@+.",
"+@+$$$$$$$$$$$$$$$$$$$$$$$$$$@+.",
"+@+$$$$$$$$$$$$$$$$$$$$$$$$$$@+.",
"+@+$$$$$$$$$$$$$$$$$$$$$$$$$$@+.",
"+@+%&&&&&&&&&&&&&&&&&&&&&&&&*@+.",
"+@+=------------------------;@+.",
"+@+=-->$$$$$,$'->)!>$$$$$---;@+.",
"+@+=-->~{]^$-/$!(_:>~{]^$---;@+.",
"+@+=---<[}|<--~$}1-<<[}|----;@+.",
"+@+=---<~2|<-->$3--<<~2|----;@+.",
"+@+=---<~4|<-4$_$5-<<~4|----;@+.",
"+@+=---<[]|<,$}1{36<<[]|----;@+.",
"+@+=---!<78!-19--99<!<78----;@+.",
"+@+7000000000000000000000000a@+.",
"+@+$$$$$$$$$$$$$$$$$$$$$$$$$$@+.",
"+@+$$$$$$$$$$$$$$$$$$$$$$$$$$@+.",
"+@+$$$$$$$$$$$$$$$$$$$$$$$$$$@+.",
"+@+$$$$$$$$$$$$$$$$$$$$$$$$$$@+.",
"+@@@@@@@@@@@@@@@@@@@@@@@@@@@@@+.",
"+++++++++++++++++++++++++++++++.",
"................................",
"................................"};
